<svg id="svg" fill="#87c7eb" stroke="#87c7eb" width="200" height="200" version="1.1" viewBox="144 144 512 512" xmlns="http://www.w3.org/2000/svg">
    <g id="IconSvg_bgCarrier" stroke-width="0"></g>
    <g id="IconSvg_tracerCarrier" stroke-linecap="round" stroke-linejoin="round" stroke="#CCCCCC" stroke-width="0">
      <g xmlns="http://www.w3.org/2000/svg">
  <path d="m173.86 275.61c0 52.898 43.035 95.934 95.926 95.934 52.898 0 95.934-43.035 95.934-95.934 0-52.895-43.035-95.926-95.934-95.926-52.891-0.003906-95.926 43.031-95.926 95.926zm95.93-88.059c48.559 0 88.062 39.5 88.062 88.055 0 48.559-39.5 88.062-88.062 88.062-48.555 0-88.055-39.5-88.055-88.062-0.003907-48.551 39.504-88.055 88.055-88.055z"></path>
  <path d="m173.86 620.31h191.87v-191.87l-191.87 0.003907zm7.8711-183.99h176.12v176.12h-176.12z"></path>
  <path d="m405.24 524.39 55.398 95.926h110.72l55.398-95.926-55.398-95.934h-110.72zm161.57-88.062 50.844 88.062-50.844 88.055h-101.64l-50.844-88.055 50.844-88.062z"></path>
  <path d="m296.24 483.49-27.578 27.574-27.566-27.574-5.5703 5.5664 27.562 27.574-27.562 27.559 5.5703 5.5625 27.562-27.559 27.566 27.574 5.5625-5.5625-27.566-27.574 27.582-27.574z"></path>
  <path d="m418.5 358.08h194.98l-97.484-168.86zm13.637-7.8711 83.855-145.25 83.855 145.25z"></path>
  <path d="m484.24 294.76h63.512v7.8711h-63.512z"></path>
  <path d="m468.45 520.45h95.094v7.8711h-95.094z"></path>
  <path d="m264.73 318.54h7.8711v-38.996h38.977v-7.8711h-38.977v-38.996h-7.8711v38.996h-39v7.8711h39z"></path>
  <path d="m516 501.79c3.6836 0 6.6797-2.9961 6.6797-6.6797s-2.9961-6.6797-6.6797-6.6797-6.6797 2.9961-6.6797 6.6797 2.9922 6.6797 6.6797 6.6797zm0-7.8711c0.65625 0 1.1914 0.53516 1.1914 1.1914 0 1.3125-2.3789 1.3125-2.3789 0-0.003906-0.65625 0.53125-1.1914 1.1875-1.1914z"></path>
  <path d="m516 546.98c-3.6836 0-6.6797 2.9961-6.6797 6.6875 0 3.6836 2.9961 6.6797 6.6797 6.6797s6.6797-2.9961 6.6797-6.6797c0-3.6875-2.9961-6.6875-6.6797-6.6875zm-1.1914 6.6875c0-0.65625 0.53516-1.1914 1.1914-1.1914s1.1914 0.53516 1.1914 1.1914c-0.003906 1.3008-2.3828 1.3008-2.3828 0z"></path>
 </g>

      </g>
     <g id="IconSvg_iconCarrier">
      <g xmlns="http://www.w3.org/2000/svg">
  <path d="m173.86 275.61c0 52.898 43.035 95.934 95.926 95.934 52.898 0 95.934-43.035 95.934-95.934 0-52.895-43.035-95.926-95.934-95.926-52.891-0.003906-95.926 43.031-95.926 95.926zm95.93-88.059c48.559 0 88.062 39.5 88.062 88.055 0 48.559-39.5 88.062-88.062 88.062-48.555 0-88.055-39.5-88.055-88.062-0.003907-48.551 39.504-88.055 88.055-88.055z"></path>
  <path d="m173.86 620.31h191.87v-191.87l-191.87 0.003907zm7.8711-183.99h176.12v176.12h-176.12z"></path>
  <path d="m405.24 524.39 55.398 95.926h110.72l55.398-95.926-55.398-95.934h-110.72zm161.57-88.062 50.844 88.062-50.844 88.055h-101.64l-50.844-88.055 50.844-88.062z"></path>
  <path d="m296.24 483.49-27.578 27.574-27.566-27.574-5.5703 5.5664 27.562 27.574-27.562 27.559 5.5703 5.5625 27.562-27.559 27.566 27.574 5.5625-5.5625-27.566-27.574 27.582-27.574z"></path>
  <path d="m418.5 358.08h194.98l-97.484-168.86zm13.637-7.8711 83.855-145.25 83.855 145.25z"></path>
  <path d="m484.24 294.76h63.512v7.8711h-63.512z"></path>
  <path d="m468.45 520.45h95.094v7.8711h-95.094z"></path>
  <path d="m264.73 318.54h7.8711v-38.996h38.977v-7.8711h-38.977v-38.996h-7.8711v38.996h-39v7.8711h39z"></path>
  <path d="m516 501.79c3.6836 0 6.6797-2.9961 6.6797-6.6797s-2.9961-6.6797-6.6797-6.6797-6.6797 2.9961-6.6797 6.6797 2.9922 6.6797 6.6797 6.6797zm0-7.8711c0.65625 0 1.1914 0.53516 1.1914 1.1914 0 1.3125-2.3789 1.3125-2.3789 0-0.003906-0.65625 0.53125-1.1914 1.1875-1.1914z"></path>
  <path d="m516 546.98c-3.6836 0-6.6797 2.9961-6.6797 6.6875 0 3.6836 2.9961 6.6797 6.6797 6.6797s6.6797-2.9961 6.6797-6.6797c0-3.6875-2.9961-6.6875-6.6797-6.6875zm-1.1914 6.6875c0-0.65625 0.53516-1.1914 1.1914-1.1914s1.1914 0.53516 1.1914 1.1914c-0.003906 1.3008-2.3828 1.3008-2.3828 0z"></path>
 </g>

      </g>
      </svg>